Coordinates
version=1
nRows=13
nColumns=38
inDegrees=yes

Units are S.I. units (second, meters, Newtons, ...)
Angles are in degrees.

endheader
time	pelvis_tilt	pelvis_list	pelvis_rotation	pelvis_tx	pelvis_ty	pelvis_tz	hip_flexion_r	hip_adduction_r	hip_rotation_r	knee_angle_r	ankle_angle_r	subtalar_angle_r	mtp_angle_r	hip_flexion_l	hip_adduction_l	hip_rotation_l	knee_angle_l	ankle_angle_l	subtalar_angle_l	mtp_angle_l	lumbar_extension	lumbar_bending	lumbar_rotation	arm_flex_r	arm_add_r	arm_rot_r	elbow_flex_r	pro_sup_r	wrist_flex_r	wrist_dev_r	arm_flex_l	arm_add_l	arm_rot_l	elbow_flex_l	pro_sup_l	wrist_flex_l	wrist_dev_l
      3.90000000	     -6.01188274	      3.23638545	      3.67530437	      0.15916197	      0.87755286	      2.61540690	     26.35424625	     -2.81654685	    -10.78143786	    -19.61563202	     -6.82906347	     -0.00005979	      0.00000000	      0.38250381	      1.33603282	      7.38580235	    -52.21819432	    -10.79399851	     -0.00002028	      0.00000000	     -4.57600053	     -2.36294099	     -8.42345841	    -27.77224886	    -14.06155541	     -4.96578769	     72.41765560	     84.21708469	     -0.00008370	     -0.00000385	      6.42113199	    -12.40752844	     -1.77068491	    114.64982923	  50261.63718761	     -0.00006200	     -0.00000318
      3.91000000	     -5.71289097	      3.25539238	      3.50536274	      0.15867397	      0.87013684	      2.61572716	     26.23460563	     -2.35394101	     -8.91546559	    -22.61589373	     -1.36565113	     -0.00007307	      0.00000000	      1.85086699	      1.24356364	      7.31996131	    -56.87282208	     -8.31566983	     -0.00003733	      0.00000000	     -4.70339572	     -2.33349492	     -7.82915779	    -26.06484988	    -14.35343856	     -4.59739874	     71.50656718	     84.62822385	     -0.00008019	     -0.00000061	      5.98467124	    -12.06168926	     -1.64166013	    113.57228692	  50261.29056230	     -0.00006250	     -0.00000378
      3.92000000	     -5.22723631	      3.09852425	      3.11976086	      0.15807644	      0.86242239	      2.61667947	     26.08201443	     -1.61928253	     -7.15894810	    -25.65538453	      3.51086987	     -0.00009668	      0.00000000	      3.19079472	      0.85260481	      7.00667011	    -61.40645670	     -5.70410395	     -0.00005212	      0.00000000	     -5.05881508	     -2.12424612	     -7.19305434	    -24.02625298	    -14.71731080	     -4.04773510	     70.49625015	     85.41752155	     -0.00007649	      0.00000122	      5.38191952	    -11.80516955	     -1.51748826	    112.52477717	  50261.36304072	     -0.00005983	     -0.00000255
      3.93000000	     -4.78092601	      2.54382996	      2.50403671	      0.15642068	      0.85463367	      2.61829703	     26.22865993	     -0.38973043	     -5.86902852	    -28.96253339	      7.41601930	     -0.00011215	      0.00000000	      4.80681193	     -0.00585565	      6.59259874	    -65.98750947	     -2.68991944	     -0.00006234	      0.00000000	     -5.47328890	     -1.55670287	     -6.25175052	    -21.63515045	    -15.08549663	     -3.32376389	     69.24818761	     86.12601056	     -0.00007675	     -0.00000041	      4.72826608	    -11.59188440	     -1.59153700	    111.27937256	  50261.44192352	     -0.00005919	     -0.00000427
      3.94000000	     -4.25693764	      1.95058057	      1.72796804	      0.15370434	      0.84730929	      2.61985070	     26.61202777	      0.75769862	     -5.05405741	    -32.60236866	     10.52178009	     -0.00012200	      0.00000000	      6.46707649	     -0.92049049	      6.10543133	    -70.33460812	      0.03428116	     -0.00006885	      0.00000000	     -6.16059007	     -0.95207012	     -5.20793102	    -18.87981700	    -15.45865850	     -2.54842786	     67.97276356	     88.02406824	     -0.00008095	      0.00000854	      4.08222394	    -11.38787980	     -1.83120664	    109.89520305	  50261.17374558	     -0.00005688	     -0.00000162
      3.95000000	     -3.37258632	      1.38340637	      0.87233609	      0.15055157	      0.84097464	      2.62128534	     26.51356571	      1.92733359	     -4.07518096	    -36.02736029	     13.24255197	     -0.00013129	      0.00000000	      7.80366847	     -1.80582625	      5.65625151	    -74.29688587	      2.30490611	     -0.00007398	      0.00000000	     -7.39116045	     -0.36131470	     -4.15701604	    -15.81192425	    -15.83566533	     -1.53263855	     66.70279164	     88.85898191	     -0.00008000	      0.00000940	      3.43335896	    -11.28137257	     -2.07624673	    108.48419184	  50261.03856158	     -0.00006000	     -0.00000405
      3.96000000	     -2.31250943	      0.74078666	     -0.22000727	      0.14783255	      0.83561235	      2.62267876	     25.95486326	      3.25076790	     -2.70026234	    -39.19583704	     15.49437968	     -0.00013516	      0.00000000	      8.80782215	     -2.81578002	      4.99458841	    -77.67648923	      4.23402457	     -0.00007605	      0.00000000	     -8.79316079	      0.27752924	     -2.90620366	    -12.62282176	    -16.35633433	     -0.25240981	     65.55477686	     89.62420976	     -0.00008472	      0.00001355	      2.56453998	    -11.15610025	     -2.45694151	    107.05581405	  50261.12643136	     -0.00005494	     -0.00000273
      3.97000000	     -2.48436444	     -0.00832744	     -1.47098268	      0.14571377	      0.83091353	      2.62323357	     26.03389775	      4.68091805	     -1.10967909	    -41.22690523	     17.11774384	     -0.00013815	      0.00000000	     11.01421740	     -3.85762666	      4.28286544	    -80.46395347	      5.97870105	     -0.00007616	      0.00000000	     -8.72511839	      1.05303963	     -1.40867957	     -9.49377171	    -16.96071182	      1.22347895	     64.05456442	     89.82010222	     -0.00008662	      0.00001885	      1.16458351	    -10.85057446	     -2.82408905	    105.37942211	  50261.09864438	     -0.00005563	     -0.00000503
      3.98000000	     -3.21275791	     -0.76967808	     -2.70425069	      0.14381780	      0.82762653	      2.62346480	     26.13458748	      5.98124601	      0.09956292	    -42.26846750	     18.27407965	     -0.00013717	      0.00000000	     13.74487685	     -4.91113420	      3.69685603	    -82.61587523	      7.33540168	     -0.00007918	      0.00000000	     -7.97118696	      1.90858342	      0.16600260	     -6.50489490	    -17.43138689	      2.57209591	     62.46662450	     91.05669731	     -0.00008481	      0.00002212	     -0.30445463	    -10.53447245	     -2.99586418	    103.19039159	  50261.03078657	     -0.00005443	     -0.00000186
      3.99000000	     -3.59255385	     -1.25752509	     -3.42440450	      0.14214883	      0.82606423	      2.62331610	     25.38261281	      6.63112462	      0.58310669	    -42.49700980	     19.37450656	     -0.00013654	      0.00000000	     16.07943421	     -5.54059186	      3.64548244	    -84.07100584	      8.36881753	     -0.00007620	      0.00000000	     -7.58106533	      2.48839179	      1.18641845	     -3.70296446	    -17.63516885	      3.69048943	     61.27122513	     93.09879906	     -0.00008609	      0.00002426	     -1.78358000	    -10.39464107	     -3.08499632	    101.48684842	  50260.89005407	     -0.00005386	     -0.00000352
      4.00000000	     -3.47751423	     -1.65240682	     -3.61769755	      0.14094006	      0.82644753	      2.62268588	     23.64170483	      6.80643229	      0.37042375	    -41.94141448	     20.23036579	     -0.00013195	      0.00000000	     17.84608056	     -5.87972690	      4.16429699	    -84.80748770	      9.05674397	     -0.00007204	      0.00000000	     -7.69556727	      2.96117501	      1.83324717	     -1.35716433	    -17.66409783	      4.36716957	     60.81062291	     94.76862869	     -0.00008268	      0.00002651	     -3.24417287	    -10.37450986	     -3.09039288	    100.09409443	  50260.77708507	     -0.00005497	     -0.00000116
      4.01000000	     -3.07776876	     -1.94995812	     -3.38522161	      0.13971601	      0.82834959	      2.62171242	     21.16537872	      6.74337327	     -0.01641931	    -40.71037200	     20.64721558	     -0.00012135	      0.00000000	     19.35188794	     -5.95744730	      5.00783491	    -84.92329692	      9.70447800	     -0.00006059	      0.00000000	     -8.06788560	      3.28960431	      2.27833061	      0.61145053	    -17.65175297	      4.83232671	     60.95802019	     95.86361142	     -0.00008055	      0.00002722	     -4.56645041	    -10.43883937	     -2.99172617	     98.99068742	  50260.85174464	     -0.00005291	     -0.00000381
      4.02000000	     -2.73342423	     -1.93144239	     -2.95754062	      0.13819647	      0.83117546	      2.62041186	     18.60693114	      6.24130239	     -0.88160338	    -38.80141343	     21.19790206	     -0.00011777	      0.00000000	     20.89178051	     -5.62431857	      5.91156603	    -84.45256754	     10.37020103	     -0.00006022	      0.00000000	     -8.40884756	      3.26174288	      2.56725596	      2.22186457	    -17.48185975	      4.85562990	     61.70102441	     96.34816617	     -0.00008127	      0.00002620	     -5.95627980	    -10.52838838	     -3.07400539	     98.24701000	  50260.89631422	     -0.00005320	     -0.00000273
